<svg xmlns="http://www.w3.org/2000/svg" width="240" height="48" viewBox="0 0 240 48" role="img" aria-label="Sign in with kunji">
  <rect width="240" height="48" rx="24" fill="#f59e0b"/>
  <g transform="translate(20 24) scale(0.05) translate(-256 -256)">
    <g transform="rotate(-40 256 256)" fill="#1c1606">
      <path fill-rule="evenodd" d="M 282,256 A 86,86 0 0,1 110,256 A 86,86 0 0,1 282,256 Z M 244,256 A 48,48 0 0,0 148,256 A 48,48 0 0,0 244,256 Z"/>
      <rect x="196" y="238" width="200" height="36" rx="18"/>
      <rect x="356" y="274" width="28" height="48" rx="8"/>
      <rect x="314" y="274" width="28" height="36" rx="8"/>
    </g>
  </g>
  <text x="46" y="30" fill="#1a1a18" font-family="'Geist','Inter',system-ui,-apple-system,'Segoe UI',Roboto,sans-serif" font-size="16" font-weight="600" letter-spacing="-0.2">Sign in with kunji</text>
</svg>
